<svg width="57" height="56" viewBox="0 0 57 56" fill="none" xmlns="http://www.w3.org/2000/svg">
<path d="M25 37.4745L16.25 28.7227L18.7228 26.25L25 32.5255L38.2737 19.25L40.75 21.7262L25 37.4745Z" fill="#BDBDBD"/>
<path d="M28.5 3.5C23.6544 3.5 18.9175 4.9369 14.8885 7.62899C10.8595 10.3211 7.71931 14.1475 5.86496 18.6243C4.01062 23.101 3.52543 28.0272 4.47077 32.7797C5.41611 37.5322 7.74951 41.8977 11.1759 45.3241C14.6023 48.7505 18.9678 51.0839 23.7203 52.0292C28.4728 52.9746 33.399 52.4894 37.8758 50.635C42.3525 48.7807 46.1789 45.6405 48.871 41.6115C51.5631 37.5825 53 32.8456 53 28C53 21.5022 50.4188 15.2705 45.8241 10.6759C41.2295 6.08124 34.9978 3.5 28.5 3.5ZM28.5 49C24.3466 49 20.2865 47.7684 16.833 45.4609C13.3796 43.1534 10.688 39.8736 9.09854 36.0364C7.5091 32.1991 7.09323 27.9767 7.90352 23.9031C8.71381 19.8295 10.7139 16.0877 13.6508 13.1508C16.5877 10.2139 20.3295 8.2138 24.4031 7.40351C28.4767 6.59322 32.6991 7.00909 36.5364 8.59853C40.3736 10.188 43.6534 12.8796 45.9609 16.333C48.2684 19.7865 49.5 23.8466 49.5 28C49.5 33.5695 47.2875 38.911 43.3493 42.8492C39.411 46.7875 34.0696 49 28.5 49Z" fill="#BDBDBD"/>
</svg>
