<svg width="18" height="24" viewBox="0 0 18 24" fill="none" xmlns="http://www.w3.org/2000/svg">
<g clip-path="url(#clip0_423_9974)">
<path d="M12 6C13.657 6 15 4.65703 15 3C15 1.34297 13.657 0 12 0C10.343 0 9 1.34297 9 3C9 4.65703 10.343 6 12 6ZM10.5642 13.957C11.2233 14.7408 12.3923 14.8519 13.1878 14.2017L17.3128 10.8258C18.1139 10.1705 18.2311 8.98875 17.5763 8.18766C16.9214 7.38562 15.7392 7.26938 14.9367 7.92422L12.2442 10.1273L10.4203 7.95656C9.69656 7.09453 8.58187 6.64781 7.42031 6.76922C6.28641 6.88547 5.29922 7.53188 4.77797 8.49984L2.46375 12.8137C1.36688 14.8594 2.05641 17.3311 4.06641 18.6145L6.16687 20.25H1.875C0.839531 20.25 0 21.0895 0 22.125C0 23.1605 0.839531 24 1.875 24H11.625C13.2225 24 14.1455 21.9942 12.9506 20.7994L7.80094 15.6497L9.43219 12.6089L10.5642 13.957Z" fill="#0BA290"/>
</g>
<defs>
<clipPath id="clip0_423_9974">
<rect width="18" height="24" fill="white"/>
</clipPath>
</defs>
</svg>
