<svg width="57" height="56" viewBox="0 0 57 56" fill="none" xmlns="http://www.w3.org/2000/svg">
<path d="M2.5 34H10.5C13.1522 34 15.6957 35.0536 17.5711 36.9289C19.4464 38.8043 20.5 41.3479 20.5 44M8.5 44H28.5C30.6217 44 32.6566 44.8429 34.1569 46.3432C35.6571 47.8435 36.5 49.8783 36.5 52C36.5 52.5304 36.2893 53.0392 35.9142 53.4142C35.5391 53.7893 35.0304 54 34.5 54H2.5M35.5 34L19.5 19.2C10.78 10.44 23.5 -6.51999 35.5 7.20002C47.5 -6.47999 60.34 10.48 51.5 19.2L35.5 34Z" stroke="#BDBDBD" stroke-width="2" stroke-linecap="round" stroke-linejoin="round"/>
</svg>
