<svg width="89" height="88" viewBox="0 0 89 88" fill="none" xmlns="http://www.w3.org/2000/svg">
<path d="M44.5 8.9375C37.5653 8.9375 30.7863 10.9939 25.0203 14.8466C19.2543 18.6993 14.7603 24.1753 12.1065 30.5822C9.45269 36.989 8.75834 44.0389 10.1112 50.8404C11.4641 57.6418 14.8035 63.8894 19.7071 68.7929C24.6107 73.6965 30.8582 77.0359 37.6597 78.3888C44.4611 79.7417 51.511 79.0473 57.9179 76.3935C64.3247 73.7397 69.8007 69.2457 73.6534 63.4797C77.5061 57.7137 79.5625 50.9347 79.5625 44C79.5516 34.7042 75.854 25.7923 69.2809 19.2191C62.7078 12.646 53.7958 8.94842 44.5 8.9375ZM25.0575 68.0625C27.0746 64.7084 29.9251 61.9332 33.3319 60.0065C36.7388 58.0799 40.5861 57.0674 44.5 57.0674C48.4139 57.0674 52.2612 58.0799 55.6681 60.0065C59.0749 61.9332 61.9254 64.7084 63.9425 68.0625C58.4438 72.5214 51.5795 74.9548 44.5 74.9548C37.4206 74.9548 30.5563 72.5214 25.0575 68.0625ZM32.8125 41.25C32.8125 38.9384 33.498 36.6788 34.7822 34.7568C36.0665 32.8348 37.8918 31.3368 40.0274 30.4522C42.163 29.5676 44.513 29.3361 46.7801 29.7871C49.0473 30.238 51.1298 31.3512 52.7643 32.9857C54.3988 34.6202 55.512 36.7027 55.9629 38.9699C56.4139 41.237 56.1825 43.587 55.2979 45.7226C54.4133 47.8582 52.9152 49.6836 50.9932 50.9678C49.0712 52.252 46.8116 52.9375 44.5 52.9375C41.4003 52.9375 38.4275 51.7061 36.2357 49.5143C34.0439 47.3225 32.8125 44.3497 32.8125 41.25ZM67.0191 65.1888C63.7784 60.1499 58.9345 56.3498 53.2691 54.4019C56.0941 52.5202 58.2387 49.7795 59.3857 46.5848C60.5328 43.3902 60.6214 39.9112 59.6384 36.6624C58.6555 33.4135 56.6532 30.5671 53.9276 28.5441C51.202 26.5211 47.8978 25.4289 44.5035 25.4289C41.1091 25.4289 37.8049 26.5211 35.0793 28.5441C32.3537 30.5671 30.3514 33.4135 29.3685 36.6624C28.3855 39.9112 28.4741 43.3902 29.6212 46.5848C30.7682 49.7795 32.9128 52.5202 35.7378 54.4019C30.0724 56.3498 25.2285 60.1499 21.9878 65.1888C17.845 60.7925 15.0799 55.2796 14.0336 49.3302C12.9873 43.3808 13.7055 37.2553 16.0998 31.7093C18.494 26.1634 22.4594 21.4397 27.5068 18.121C32.5542 14.8023 38.4628 13.0339 44.5035 13.0339C50.5441 13.0339 56.4527 14.8023 61.5001 18.121C66.5475 21.4397 70.5129 26.1634 72.9072 31.7093C75.3014 37.2553 76.0196 43.3808 74.9733 49.3302C73.927 55.2796 71.1619 60.7925 67.0191 65.1888Z" fill="#4F4F4F"/>
</svg>
