<svg width="24" height="24" viewBox="0 0 24 24" fill="none" xmlns="http://www.w3.org/2000/svg">
<path d="M21 7.59604C21 6.60304 20.9415 6.30003 20.7765 5.99103C20.6603 5.76969 20.4792 5.58913 20.2575 5.47353C19.95 5.30853 19.647 5.25004 18.654 5.25004H5.34604C4.35303 5.25004 4.05003 5.30853 3.74103 5.47353C3.51969 5.58977 3.33913 5.77085 3.22353 5.99253C3.05853 6.30003 3.00004 6.60304 3.00004 7.59604V16.404C3.00004 17.397 3.05853 17.7 3.22353 18.009C3.33977 18.2304 3.52085 18.4109 3.74253 18.5265C4.05003 18.6915 4.35303 18.75 5.34604 18.75H18.654C19.647 18.75 19.95 18.6915 20.259 18.5265C20.4804 18.4103 20.6609 18.2292 20.7765 18.0075C20.9415 17.7 21 17.397 21 16.404V7.59604ZM22.5 7.59604V16.404C22.5 17.742 22.3605 18.2265 22.0995 18.714C21.8385 19.2045 21.4545 19.5885 20.9655 19.8495C20.4765 20.1105 19.9905 20.25 18.6555 20.25H5.34453C4.00654 20.25 3.52204 20.1105 3.03454 19.8495C2.55081 19.5941 2.15515 19.1989 1.89904 18.7155C1.63804 18.2265 1.49854 17.7405 1.49854 16.4055V7.59454C1.49854 6.25654 1.63804 5.77204 1.89904 5.28454C2.16004 4.79404 2.54404 4.41004 3.03304 4.14904C3.52204 3.88804 4.00804 3.74854 5.34304 3.74854H18.6525C19.9905 3.74854 20.475 3.88804 20.9625 4.14904C21.453 4.41004 21.837 4.79404 22.098 5.28304C22.359 5.77204 22.4985 6.25803 22.4985 7.59303L22.5 7.59604Z" fill="#DC3868"/>
<path d="M1.5 7.5H22.5V9H1.5V7.5ZM1.5 10.5H22.5V12H1.5V10.5ZM4.5 15H10.5V16.5H4.5V15Z" fill="#DC3868"/>
</svg>
