<svg width="24" height="24" viewBox="0 0 24 24" fill="none" xmlns="http://www.w3.org/2000/svg">
<g clip-path="url(#clip0_423_18813)">
<path d="M0.857178 14.5715H4.28575C5.42239 14.5715 6.51248 15.023 7.31621 15.8268C8.11993 16.6305 8.57146 17.7206 8.57146 18.8572M3.42861 18.8572H12C12.9093 18.8572 13.7814 19.2184 14.4244 19.8614C15.0674 20.5044 15.4286 21.3765 15.4286 22.2858C15.4286 22.5131 15.3383 22.7311 15.1776 22.8919C15.0168 23.0526 14.7988 23.1429 14.5715 23.1429H0.857178M15 14.5715L8.14289 8.22865C4.40575 4.47436 9.85718 -2.79421 15 3.08579C20.1429 -2.77707 25.6457 4.49151 21.8572 8.22865L15 14.5715Z" stroke="#DC3868" stroke-width="2" stroke-linecap="round" stroke-linejoin="round"/>
</g>
<defs>
<clipPath id="clip0_423_18813">
<rect width="24" height="24" fill="white"/>
</clipPath>
</defs>
</svg>
