<svg width="18" height="18" viewBox="0 0 18 18" fill="none" xmlns="http://www.w3.org/2000/svg">
<path id="Vector" d="M6.20833 2.92361H3.77778C2.80556 2.92361 2.31944 2.92361 1.94792 3.11285C1.62123 3.27924 1.35563 3.54484 1.18924 3.87153C1 4.24306 1 4.72917 1 5.70139V14.0347C1 15.0069 1 15.4931 1.18924 15.8646C1.35568 16.1912 1.62126 16.4568 1.94792 16.6233C2.31858 16.8125 2.80469 16.8125 3.77517 16.8125H12.1137C13.0842 16.8125 13.5694 16.8125 13.9401 16.6233C14.2674 16.4566 14.533 16.191 14.6997 15.8646C14.8889 15.4931 14.8889 15.0078 14.8889 14.0373V11.6042M11.4167 3.79167L6.20833 9V11.6042H8.8125L14.0208 6.39583M11.4167 3.79167L14.0208 1.1875L16.625 3.79167L14.0208 6.39583M11.4167 3.79167L14.0208 6.39583" stroke="black" stroke-width="1.5625" stroke-linecap="round" stroke-linejoin="round"/>
</svg>
