<svg width="24" height="24" viewBox="0 0 24 24" fill="" xmlns="http://www.w3.org/2000/svg">
    <path
        d="M9 5H6.2C5.08 5 4.52 5 4.092 5.218C3.71565 5.40969 3.40969 5.71565 3.218 6.092C3 6.52 3 7.08 3 8.2V17.8C3 18.92 3 19.48 3.218 19.908C3.40974 20.2843 3.71569 20.5903 4.092 20.782C4.519 21 5.079 21 6.197 21H15.803C16.921 21 17.48 21 17.907 20.782C18.284 20.59 18.59 20.284 18.782 19.908C19 19.48 19 18.921 19 17.803V15M15 6L9 12V15H12L18 9M15 6L18 3L21 6L18 9M15 6L18 9"
        stroke-width="1.5625" stroke-linecap="round" stroke-linejoin="round" />
</svg>