<svg width="32" height="32" viewBox="0 0 32 32" fill="none" xmlns="http://www.w3.org/2000/svg">
<path d="M4.5 4.25193V7.67393C7.45 4.51393 11.672 2.93693 16.018 3.00193C21.96 3.08993 26.716 6.26993 29.802 11.0759C29.8927 11.2141 29.9551 11.3688 29.9856 11.5312C30.0161 11.6937 30.0141 11.8605 29.9797 12.0221C29.9453 12.1838 29.8792 12.337 29.7852 12.4729C29.6912 12.6088 29.5712 12.7248 29.4321 12.814C29.293 12.9032 29.1376 12.964 28.9749 12.9928C28.8122 13.0216 28.6453 13.0179 28.4841 12.9818C28.3228 12.9457 28.1703 12.878 28.0354 12.7826C27.9005 12.6872 27.7858 12.5659 27.698 12.4259C24.985 8.20093 20.947 5.57593 15.981 5.50093C11.968 5.44093 8.213 7.00393 5.789 10.0009H9.75C10.0815 10.0009 10.3995 10.1326 10.6339 10.367C10.8683 10.6015 11 10.9194 11 11.2509C11 11.5825 10.8683 11.9004 10.6339 12.1348C10.3995 12.3692 10.0815 12.5009 9.75 12.5009H3.25C2.56 12.5009 2 11.9409 2 11.2509V4.25093C2 3.91941 2.1317 3.60147 2.36612 3.36705C2.60054 3.13263 2.91848 3.00093 3.25 3.00093C3.58152 3.00093 3.89946 3.13263 4.13388 3.36705C4.3683 3.60147 4.5 3.92041 4.5 4.25193ZM12.486 15.0989C12.949 15.2949 13.25 15.7489 13.25 16.2509V27.4999C13.25 27.8314 13.1183 28.1494 12.8839 28.3838C12.6495 28.6182 12.3315 28.7499 12 28.7499C11.6685 28.7499 11.3505 28.6182 11.1161 28.3838C10.8817 28.1494 10.75 27.8314 10.75 27.4999V19.0299C10.2289 19.3995 9.69277 19.7475 9.143 20.0729C8.85869 20.2435 8.51828 20.2941 8.19665 20.2136C7.87503 20.1332 7.59853 19.9282 7.428 19.6439C7.25747 19.3596 7.20686 19.0192 7.28731 18.6976C7.36776 18.376 7.57269 18.0995 7.857 17.9289C8.903 17.3009 9.49 16.8749 9.913 16.5179C10.223 16.2559 10.444 16.0349 10.723 15.7569C10.843 15.6369 10.974 15.5049 11.128 15.3559C11.304 15.1843 11.5267 15.0684 11.7682 15.0227C12.0098 14.977 12.2595 15.0035 12.486 15.0989ZM16.949 17.2989C17.787 15.8819 19.18 14.9999 21.1 14.9999C23.023 14.9999 24.414 15.8799 25.252 17.2979C26.033 18.6199 26.287 20.3209 26.287 21.9989C26.287 23.6789 26.033 25.3789 25.252 26.7009C24.414 28.1199 23.022 28.9999 21.1 28.9999C19.178 28.9999 17.787 28.1199 16.95 26.7019C16.168 25.3799 15.914 23.6789 15.914 21.9999C15.914 20.3219 16.168 18.6199 16.949 17.2989ZM19.101 18.5709C18.653 19.3299 18.414 20.5039 18.414 22.0009C18.414 23.4969 18.653 24.6709 19.101 25.4309C19.494 26.0939 20.071 26.5009 21.101 26.5009C22.131 26.5009 22.707 26.0939 23.1 25.4309C23.548 24.6709 23.787 23.4969 23.787 22.0009C23.787 20.5039 23.548 19.3299 23.1 18.5709C22.707 17.9069 22.13 17.5009 21.1 17.5009C20.07 17.5009 19.493 17.9069 19.101 18.5709Z" fill="#4F4F4F"/>
</svg>
