<svg width="32" height="32" viewBox="0 0 32 32" fill="none" xmlns="http://www.w3.org/2000/svg">
<path d="M16.019 5.50093C20.032 5.44093 23.787 7.00393 26.211 10.0009H22.25C21.9185 10.0009 21.6005 10.1326 21.3661 10.367C21.1317 10.6015 21 10.9194 21 11.2509C21 11.5825 21.1317 11.9004 21.3661 12.1348C21.6005 12.3692 21.9185 12.5009 22.25 12.5009H28.75C29.44 12.5009 30 11.9409 30 11.2509V4.25093C30 3.91941 29.8683 3.60147 29.6339 3.36705C29.3995 3.13263 29.0815 3.00093 28.75 3.00093C28.4185 3.00093 28.1005 3.13263 27.8661 3.36705C27.6317 3.60147 27.5 3.91941 27.5 4.25093V7.67393C24.55 4.51393 20.328 2.93693 15.982 3.00193C10.04 3.08993 5.284 6.26993 2.19701 11.0759C2.10631 11.2141 2.04391 11.3688 2.01342 11.5312C1.98292 11.6937 1.98493 11.8605 2.01933 12.0221C2.05372 12.1838 2.11983 12.337 2.21382 12.4729C2.30781 12.6088 2.42782 12.7248 2.56691 12.814C2.70599 12.9032 2.86139 12.964 3.02411 12.9928C3.18684 13.0216 3.35366 13.0179 3.51492 12.9818C3.67619 12.9457 3.82869 12.878 3.96362 12.7826C4.09855 12.6872 4.21322 12.5659 4.30101 12.4259C7.01401 8.20093 11.053 5.57593 16.019 5.50093ZM21.1 15.0009C19.178 15.0009 17.787 15.8809 16.95 17.2989C16.168 18.6209 15.914 20.3219 15.914 21.9999C15.914 23.6799 16.168 25.3799 16.949 26.7019C17.787 28.1199 19.18 28.9999 21.1 28.9999C23.023 28.9999 24.414 28.1199 25.252 26.7019C26.033 25.3799 26.287 23.6789 26.287 21.9999C26.287 20.3219 26.033 18.6209 25.252 17.2989C24.414 15.8819 23.022 15.0009 21.1 15.0009ZM18.414 22.0009C18.414 20.5039 18.653 19.3299 19.101 18.5709C19.494 17.9069 20.071 17.5009 21.101 17.5009C22.131 17.5009 22.707 17.9069 23.1 18.5709C23.548 19.3299 23.787 20.5039 23.787 22.0009C23.787 23.4969 23.548 24.6709 23.1 25.4309C22.707 26.0939 22.13 26.5009 21.1 26.5009C20.07 26.5009 19.493 26.0939 19.101 25.4309C18.653 24.6709 18.414 23.4969 18.414 22.0009ZM13.25 16.2509C13.2499 16.0052 13.1773 15.7649 13.0414 15.5602C12.9055 15.3554 12.7122 15.1953 12.4858 15.0998C12.2593 15.0043 12.0098 14.9776 11.7683 15.0232C11.5268 15.0688 11.3041 15.1845 11.128 15.3559C10.974 15.5059 10.843 15.6359 10.723 15.7559C10.444 16.0349 10.223 16.2559 9.91301 16.5179C9.49001 16.8749 8.90301 17.3009 7.85701 17.9289C7.71623 18.0134 7.59346 18.1247 7.49571 18.2566C7.39797 18.3885 7.32715 18.5383 7.28732 18.6976C7.24748 18.8568 7.2394 19.0224 7.26354 19.1847C7.28768 19.3471 7.34357 19.5032 7.42801 19.6439C7.51244 19.7847 7.62379 19.9075 7.75567 20.0052C7.88756 20.103 8.0374 20.1738 8.19666 20.2136C8.35591 20.2535 8.52145 20.2615 8.68382 20.2374C8.8462 20.2133 9.00223 20.1574 9.143 20.0729C9.69277 19.7475 10.2289 19.3995 10.75 19.0299V27.4999C10.75 27.8314 10.8817 28.1494 11.1161 28.3838C11.3505 28.6182 11.6685 28.7499 12 28.7499C12.3315 28.7499 12.6495 28.6182 12.8839 28.3838C13.1183 28.1494 13.25 27.8314 13.25 27.4999V16.2509Z" fill="#4F4F4F"/>
</svg>
