<svg width="18" height="16" viewBox="0 0 18 16" fill="none" xmlns="http://www.w3.org/2000/svg">
<path id="Vector" d="M11.6667 1.11385C11.6667 0.153828 10.5342 -0.35374 9.81773 0.28272L5.82386 3.83391C5.70196 3.94252 5.54445 4.00261 5.38119 4.00281H2.11089C1.58075 4.00281 1.0723 4.21328 0.697268 4.58798C0.322238 4.96268 0.111311 5.47094 0.11084 6.00108V9.9985C0.11084 10.5289 0.321558 11.0377 0.69664 11.4128C1.07172 11.7878 1.58044 11.9986 2.11089 11.9986H5.38207C5.54534 11.9987 5.70285 12.0588 5.82475 12.1674L9.81684 15.7169C10.5333 16.3542 11.6667 15.8458 11.6667 14.8866V1.11385ZM6.711 4.82949L10.3333 1.60808V14.3924L6.711 11.1719C6.34493 10.8462 5.87205 10.6662 5.38207 10.6661H2.11089C1.93407 10.6661 1.7645 10.5958 1.63947 10.4708C1.51444 10.3458 1.4442 10.1762 1.4442 9.99939V6.00108C1.4442 5.82426 1.51444 5.65469 1.63947 5.52966C1.7645 5.40463 1.93407 5.33439 2.11089 5.33439H5.38207C5.87193 5.33451 6.3448 5.15486 6.711 4.82949ZM15.2152 2.57788C15.3572 2.47264 15.5353 2.42813 15.7101 2.45413C15.885 2.48014 16.0424 2.57453 16.1477 2.71655C17.2814 4.24563 17.892 6.0994 17.889 8.0029C17.8917 9.9065 17.2807 11.7603 16.1468 13.2892C16.0952 13.3611 16.0299 13.4219 15.9546 13.4683C15.8793 13.5146 15.7956 13.5455 15.7082 13.5592C15.6209 13.5729 15.5317 13.569 15.4459 13.5479C15.36 13.5268 15.2792 13.4888 15.2082 13.4362C15.1372 13.3835 15.0773 13.3173 15.0321 13.2413C14.9869 13.1653 14.9573 13.0811 14.945 12.9936C14.9326 12.906 14.9378 12.8169 14.9603 12.7314C14.9827 12.6459 15.0219 12.5657 15.0756 12.4955C16.0394 11.1961 16.5584 9.62064 16.5557 8.0029C16.5583 6.38547 16.0392 4.81031 15.0756 3.51124C15.0234 3.44082 14.9856 3.3608 14.9644 3.27576C14.9431 3.19071 14.9389 3.10231 14.9518 3.01562C14.9648 2.92893 14.9947 2.84564 15.0399 2.77053C15.0851 2.69542 15.1447 2.62995 15.2152 2.57788ZM13.5716 4.77527C13.6486 4.73352 13.733 4.70734 13.8201 4.69824C13.9072 4.68913 13.9953 4.69728 14.0792 4.72221C14.1632 4.74714 14.2414 4.78836 14.3094 4.84353C14.3774 4.8987 14.4339 4.96672 14.4756 5.04372C14.9521 5.92463 15.2223 6.93265 15.2223 8.0029C15.2238 9.03581 14.9671 10.0527 14.4756 10.9612C14.4339 11.0382 14.3775 11.1063 14.3095 11.1616C14.2415 11.2168 14.1633 11.2581 14.0794 11.2831C13.9954 11.3081 13.9074 11.3163 13.8203 11.3073C13.7331 11.2983 13.6486 11.2722 13.5716 11.2305C13.4946 11.1889 13.4265 11.1324 13.3712 11.0644C13.316 10.9964 13.2747 10.9183 13.2497 10.8343C13.2247 10.7504 13.2165 10.6623 13.2255 10.5752C13.2345 10.4881 13.2606 10.4036 13.3023 10.3265C13.6756 9.63583 13.8889 8.8447 13.8889 8.00201C13.8899 7.1907 13.6883 6.392 13.3023 5.6784C13.2183 5.52291 13.1995 5.34044 13.25 5.17109C13.3005 5.00174 13.4162 4.85937 13.5716 4.77527Z" fill="black"/>
</svg>
