<svg width="24" height="28" viewBox="0 0 24 28" fill="none" xmlns="http://www.w3.org/2000/svg">
<g clip-path="url(#clip0_429_27161)">
<path d="M22.56 9.55294C20.6942 10.7059 19.5418 12.6824 19.5418 14.8784C19.5418 17.349 21.0234 19.6 23.2733 20.5333C22.8343 21.9608 22.1758 23.2784 21.3527 24.4863C20.1454 26.1882 18.8833 27.9451 17.0175 27.9451C15.1518 27.9451 14.603 26.8471 12.408 26.8471C10.2678 26.8471 9.49958 28 7.74357 28C5.98755 28 4.78029 26.4078 3.4084 24.4314C1.59751 21.6863 0.554876 18.502 0.5 15.1529C0.5 9.71765 4.01203 6.80784 7.52406 6.80784C9.38983 6.80784 10.9263 8.01569 12.0787 8.01569C13.1762 8.01569 14.9323 6.75294 17.0175 6.75294C19.2125 6.69804 21.2978 7.74118 22.56 9.55294ZM16.0298 4.44706C16.9627 3.34902 17.4565 1.97647 17.5114 0.54902C17.5114 0.384314 17.5114 0.164706 17.4565 0C15.8651 0.164706 14.3835 0.933333 13.3409 2.14118C12.408 3.18431 11.8592 4.50196 11.8044 5.92941C11.8044 6.09412 11.8044 6.25882 11.8592 6.42353C11.969 6.42353 12.1336 6.47843 12.2434 6.47843C13.725 6.36863 15.0969 5.6 16.0298 4.44706Z" fill="black"/>
</g>
<defs>
<clipPath id="clip0_429_27161">
<rect width="22.7733" height="28" fill="white" transform="translate(0.5)"/>
</clipPath>
</defs>
</svg>
