<svg width="64" height="64" viewBox="0 0 64 64" fill="none" xmlns="http://www.w3.org/2000/svg">
<g id="ph:read-cv-logo-fill">
<path id="Vector" d="M48.4948 6.53543L15.4286 6.56969C14.3679 6.57141 13.3514 6.99432 12.6025 7.74542C11.8536 8.49651 11.4337 9.5143 11.4351 10.5749L11.5023 53.4745C11.5033 54.0001 11.6078 54.5202 11.8099 55.0054C12.012 55.4905 12.3077 55.931 12.6801 56.3018C13.0525 56.6726 13.4944 56.9663 13.9804 57.1663C14.4664 57.3663 14.987 57.4685 15.5125 57.4671L48.5788 57.4329C49.1046 57.4322 49.625 57.328 50.1105 57.126C50.5959 56.924 51.0367 56.6283 51.4078 56.2558C51.7788 55.8833 52.0728 55.4413 52.2729 54.9551C52.473 54.4689 52.5753 53.948 52.5739 53.4223L52.5066 10.5227C52.5032 9.46199 52.0787 8.44606 51.3264 7.69833C50.5741 6.9506 49.5555 6.5323 48.4948 6.53543ZM34.0015 32.549C34.0021 33.0188 33.8372 33.4739 33.5359 33.8343C33.2345 34.1947 32.8159 34.4375 32.3534 34.5202C32.2379 34.5407 32.1209 34.5513 32.0036 34.5519L21.468 34.5624C20.9613 34.5292 20.4862 34.3046 20.139 33.934C19.7919 33.5634 19.5987 33.0747 19.5986 32.567C19.5985 32.0592 19.7916 31.5704 20.1386 31.1997C20.4856 30.8291 20.9606 30.6043 21.4673 30.5709L31.9962 30.5515C32.2591 30.5508 32.5196 30.6019 32.7627 30.702C33.0058 30.802 33.2268 30.949 33.413 31.1345C33.5993 31.3201 33.7471 31.5405 33.8481 31.7832C33.9491 32.0259 34.0012 32.2861 34.0015 32.549ZM44.5131 24.542C44.5136 25.0114 44.3491 25.466 44.0482 25.8263C43.7473 26.1866 43.3293 26.4296 42.8674 26.5127C42.751 26.5336 42.6329 26.5436 42.5146 26.5424L21.4439 26.5658C20.9133 26.5661 20.4043 26.3556 20.0289 25.9807C19.6535 25.6057 19.4424 25.097 19.4421 24.5664C19.4417 24.0358 19.6522 23.5268 20.0272 23.1514C20.4021 22.7759 20.9109 22.5648 21.4415 22.5645L42.5127 22.5436C42.7757 22.5426 43.0364 22.5934 43.2797 22.6933C43.5231 22.7932 43.7444 22.9401 43.9309 23.1256C44.1174 23.3111 44.2655 23.5316 44.3666 23.7744C44.4678 24.0172 44.5201 24.2776 44.5204 24.5407L44.5131 24.542ZM44.5008 16.5408C44.5014 17.0106 44.3365 17.4656 44.0352 17.826C43.7338 18.1865 43.3152 18.4293 42.8527 18.5119C42.7372 18.5323 42.6202 18.5429 42.5029 18.5436L21.4317 18.5646C21.1644 18.5725 20.8981 18.5268 20.6488 18.43C20.3995 18.3332 20.1721 18.1875 19.98 18.0013C19.788 17.8151 19.6353 17.5923 19.5309 17.3461C19.4266 17.0998 19.3726 16.8351 19.3723 16.5677C19.372 16.3002 19.4254 16.0354 19.5292 15.789C19.633 15.5425 19.7853 15.3193 19.9769 15.1327C20.1685 14.9461 20.3955 14.7998 20.6447 14.7025C20.8938 14.6052 21.1599 14.5589 21.4273 14.5662L42.498 14.5428C42.7612 14.5415 43.0221 14.5921 43.2657 14.6918C43.5094 14.7915 43.7309 14.9383 43.9176 15.1238C44.1044 15.3093 44.2527 15.5298 44.3541 15.7728C44.4554 16.0157 44.5078 16.2762 44.5082 16.5395L44.5008 16.5408Z" fill="white"/>
</g>
</svg>
