<svg width="25" height="24" viewBox="0 0 25 24" xmlns="http://www.w3.org/2000/svg">
    <g clip-path="url(#clip0_461_6346)">
        <path
            d="M19.368 2.48151L6.32249 2.43764C5.90404 2.43648 5.50225 2.60157 5.2055 2.89659C4.90874 3.19162 4.7413 3.59243 4.74001 4.01089L4.6921 20.9359C4.69157 21.1433 4.7319 21.3487 4.81079 21.5404C4.88968 21.7322 5.00558 21.9065 5.15186 22.0534C5.29814 22.2003 5.47195 22.317 5.66334 22.3967C5.85473 22.4765 6.05996 22.5177 6.26729 22.5181L19.3128 22.5619C19.5202 22.5626 19.7257 22.5224 19.9176 22.4435C20.1095 22.3647 20.2839 22.2488 20.4309 22.1025C20.578 21.9561 20.6947 21.7823 20.7745 21.5908C20.8543 21.3993 20.8955 21.194 20.8959 20.9866L20.9438 4.06154C20.9443 3.64306 20.7786 3.24151 20.4831 2.94521C20.1876 2.64891 19.7865 2.48211 19.368 2.48151ZM19.3159 20.9838L6.26939 20.9401L6.3173 4.0151L19.3628 4.05896L19.3159 20.9838ZM7.8882 6.38777C7.88908 6.17858 7.97299 5.97831 8.12149 5.83097C8.26999 5.68363 8.47091 5.60128 8.6801 5.60204L16.9931 5.62936C17.1906 5.62976 17.3808 5.70422 17.5261 5.83804C17.6713 5.97186 17.7612 6.1553 17.7777 6.35213C17.7943 6.54895 17.7365 6.74484 17.6157 6.9011C17.4949 7.05735 17.3198 7.16261 17.1251 7.19607C17.0795 7.2039 17.0333 7.20788 16.9871 7.20796L8.67394 7.17966C8.46475 7.17878 8.26448 7.09487 8.11713 6.94638C7.96979 6.79788 7.88745 6.59696 7.8882 6.38777ZM7.88011 9.5443C7.88042 9.44065 7.90114 9.33808 7.9411 9.24244C7.98106 9.14681 8.03947 9.05998 8.11299 8.98692C8.18651 8.91387 8.27371 8.85601 8.3696 8.81666C8.46549 8.77731 8.56819 8.75724 8.67183 8.75759L16.985 8.78589C17.1836 8.78475 17.3754 8.85859 17.522 8.99265C17.6686 9.12671 17.7592 9.31113 17.7758 9.50909C17.7923 9.70705 17.7336 9.90397 17.6114 10.0605C17.4891 10.2171 17.3123 10.3218 17.1162 10.3537C17.0703 10.3618 17.0237 10.3655 16.977 10.3648L8.66407 10.3375C8.45496 10.3361 8.25494 10.2519 8.10795 10.1031C7.96095 9.9544 7.87901 9.7534 7.88011 9.5443ZM7.87087 12.7C7.87252 12.4912 7.95684 12.2916 8.10536 12.1449C8.25388 11.9982 8.4545 11.9163 8.66327 11.9172L12.8172 11.9278C13.0147 11.9282 13.2048 12.0026 13.35 12.1363C13.4953 12.27 13.5852 12.4533 13.6019 12.6501C13.6186 12.8468 13.5609 13.0426 13.4403 13.1989C13.3197 13.3552 13.1448 13.4606 12.9503 13.4943C12.9047 13.5022 12.8585 13.5062 12.8122 13.5062L8.65563 13.4921C8.44659 13.4909 8.24653 13.4069 8.0994 13.2584C7.95226 13.1099 7.87007 12.9091 7.87087 12.7Z"
        />
    </g>
    <defs>
        <clipPath id="clip0_461_6346">
            <rect width="24" height="24" fill="white" transform="translate(0.5)" />
        </clipPath>
    </defs>
</svg>