<svg width="65" height="64" viewBox="0 0 65 64" fill="none" xmlns="http://www.w3.org/2000/svg">
<path fill-rule="evenodd" clip-rule="evenodd" d="M22.9 14C15.4866 14 9.16663 19.5467 9.16663 26.7467C9.16663 31.7147 11.492 35.896 14.5746 39.36C17.6493 42.8133 21.6146 45.712 25.196 48.1387L31.38 52.3253C31.7107 52.5489 32.1008 52.6684 32.5 52.6684C32.8992 52.6684 33.2892 52.5489 33.62 52.3253L39.804 48.1387C43.388 45.712 47.3506 42.8133 50.4226 39.36C53.508 35.896 55.8333 31.7147 55.8333 26.7467C55.8333 19.5467 49.5133 14 42.1 14C38.276 14 34.9133 15.792 32.5 18.112C30.0866 15.792 26.7213 14 22.9 14ZM23.8333 34C23.8333 33.4696 24.044 32.9609 24.4191 32.5858C24.7942 32.2107 25.3029 32 25.8333 32H30.5V27.3333C30.5 26.8029 30.7107 26.2942 31.0857 25.9191C31.4608 25.544 31.9695 25.3333 32.5 25.3333C33.0304 25.3333 33.5391 25.544 33.9142 25.9191C34.2892 26.2942 34.5 26.8029 34.5 27.3333V32H39.1666C39.6971 32 40.2058 32.2107 40.5808 32.5858C40.9559 32.9609 41.1666 33.4696 41.1666 34C41.1666 34.5304 40.9559 35.0391 40.5808 35.4142C40.2058 35.7893 39.6971 36 39.1666 36H34.5V40.6667C34.5 41.1971 34.2892 41.7058 33.9142 42.0809C33.5391 42.456 33.0304 42.6667 32.5 42.6667C31.9695 42.6667 31.4608 42.456 31.0857 42.0809C30.7107 41.7058 30.5 41.1971 30.5 40.6667V36H25.8333C25.3029 36 24.7942 35.7893 24.4191 35.4142C24.044 35.0391 23.8333 34.5304 23.8333 34Z" fill="white"/>
</svg>
