<svg width="25" height="24" viewBox="0 0 25 24" xmlns="http://www.w3.org/2000/svg">
    <path
        d="M21.36 8.36985L14.43 2.82985C13.36 1.96985 11.63 1.96985 10.57 2.81985L3.64002 8.36985C2.86002 8.98985 2.36002 10.2998 2.53002 11.2798L3.86002 19.2398C4.10002 20.6598 5.46002 21.8098 6.90002 21.8098H18.1C19.53 21.8098 20.9 20.6498 21.14 19.2398L22.47 11.2798C22.63 10.2998 22.13 8.98985 21.36 8.36985ZM12.5 15.4998C11.837 15.4998 11.2011 15.2365 10.7323 14.7676C10.2634 14.2988 10 13.6629 10 12.9998C10 12.3368 10.2634 11.7009 10.7323 11.2321C11.2011 10.7632 11.837 10.4998 12.5 10.4998C13.1631 10.4998 13.7989 10.7632 14.2678 11.2321C14.7366 11.7009 15 12.3368 15 12.9998C15 13.6629 14.7366 14.2988 14.2678 14.7676C13.7989 15.2365 13.1631 15.4998 12.5 15.4998Z"
    />
</svg>