<svg width="16" height="16" viewBox="0 0 16 16" fill="none" xmlns="http://www.w3.org/2000/svg">
<g id="mdi:naira">
<path id="Vector" d="M2.66675 6H4.00008V2H5.33341L7.61341 6H10.6667V2H12.0001V6H13.3334V7.33333H12.0001V8.66667H13.3334V10H12.0001V14H10.6667L8.38008 10H5.33341V14H4.00008V10H2.66675V8.66667H4.00008V7.33333H2.66675V6ZM5.33341 6H6.08675L5.33341 4.68667V6ZM5.33341 7.33333V8.66667H7.61341L6.85341 7.33333H5.33341ZM10.6667 11.3333V10H9.90008L10.6667 11.3333ZM8.37341 7.33333L9.14008 8.66667H10.6667V7.33333H8.37341Z" fill="#333333"/>
</g>
</svg>
