<svg width="20" height="20" viewBox="0 0 20 20" fill="none" xmlns="http://www.w3.org/2000/svg">
<g clip-path="url(#clip0_423_18767)">
<path d="M2.14293 3.5715C1.76405 3.5715 1.40068 3.72201 1.13277 3.98992C0.864865 4.25783 0.714355 4.62119 0.714355 5.00007V17.8572C0.714355 18.2361 0.864865 18.5995 1.13277 18.8674C1.40068 19.1353 1.76405 19.2858 2.14293 19.2858H17.8572C18.2361 19.2858 18.5995 19.1353 18.8674 18.8674C19.1353 18.5995 19.2858 18.2361 19.2858 17.8572V5.00007C19.2858 4.62119 19.1353 4.25783 18.8674 3.98992C18.5995 3.72201 18.2361 3.5715 17.8572 3.5715H15.0001M5.00007 0.714355V6.42864M15.0001 0.714355V6.42864M5.00007 3.5715H12.1429" stroke="#DC3868" stroke-width="1.5" stroke-linecap="round" stroke-linejoin="round"/>
<path d="M10.0001 10.7143C11.4286 7.85711 14.2858 9.28569 14.2858 11.4285C14.2858 14.2857 10.0001 15.7143 10.0001 15.7143C10.0001 15.7143 5.71436 14.2857 5.71436 11.4285C5.71436 9.28569 8.5715 7.85711 10.0001 10.7143Z" stroke="#DC3868" stroke-width="1.5" stroke-linecap="round" stroke-linejoin="round"/>
</g>
<defs>
<clipPath id="clip0_423_18767">
<rect width="20" height="20" fill="white"/>
</clipPath>
</defs>
</svg>
