<svg width="19" height="19" viewBox="0 0 19 19" fill="" xmlns="http://www.w3.org/2000/svg">
    <path
        d="M15.4375 4.15625H13.3802L12.3686 2.63922C12.3144 2.55799 12.241 2.49138 12.1549 2.44529C12.0688 2.3992 11.9727 2.37506 11.875 2.375H7.125C7.02735 2.37506 6.93122 2.3992 6.84513 2.44529C6.75904 2.49138 6.68564 2.55799 6.63145 2.63922L5.6191 4.15625H3.5625C3.09008 4.15625 2.63702 4.34392 2.30297 4.67797C1.96892 5.01202 1.78125 5.46508 1.78125 5.9375V14.25C1.78125 14.7224 1.96892 15.1755 2.30297 15.5095C2.63702 15.8436 3.09008 16.0312 3.5625 16.0312H15.4375C15.9099 16.0312 16.363 15.8436 16.697 15.5095C17.0311 15.1755 17.2188 14.7224 17.2188 14.25V5.9375C17.2188 5.46508 17.0311 5.01202 16.697 4.67797C16.363 4.34392 15.9099 4.15625 15.4375 4.15625ZM16.0312 14.25C16.0312 14.4075 15.9687 14.5585 15.8573 14.6698C15.746 14.7812 15.595 14.8438 15.4375 14.8438H3.5625C3.40503 14.8438 3.25401 14.7812 3.14266 14.6698C3.03131 14.5585 2.96875 14.4075 2.96875 14.25V5.9375C2.96875 5.78003 3.03131 5.62901 3.14266 5.51766C3.25401 5.40631 3.40503 5.34375 3.5625 5.34375H5.9375C6.03528 5.34381 6.13156 5.31973 6.21779 5.27364C6.30402 5.22754 6.37753 5.16087 6.4318 5.07953L7.44266 3.5625H11.5566L12.5682 5.07953C12.6225 5.16087 12.696 5.22754 12.7822 5.27364C12.8684 5.31973 12.9647 5.34381 13.0625 5.34375H15.4375C15.595 5.34375 15.746 5.40631 15.8573 5.51766C15.9687 5.62901 16.0312 5.78003 16.0312 5.9375V14.25ZM9.5 6.53125C8.85412 6.53125 8.22274 6.72278 7.68572 7.08161C7.14869 7.44044 6.73012 7.95046 6.48296 8.54717C6.23579 9.14389 6.17112 9.8005 6.29712 10.434C6.42313 11.0674 6.73415 11.6493 7.19085 12.106C7.64756 12.5627 8.22944 12.8737 8.86291 12.9998C9.49638 13.1258 10.153 13.0611 10.7497 12.8139C11.3464 12.5668 11.8564 12.1482 12.2153 11.6112C12.5741 11.0741 12.7656 10.4428 12.7656 9.79688C12.7646 8.93108 12.4203 8.10102 11.8081 7.48881C11.1959 6.8766 10.3658 6.53223 9.5 6.53125ZM9.5 11.875C9.08899 11.875 8.6872 11.7531 8.34546 11.5248C8.00371 11.2964 7.73735 10.9719 7.58006 10.5921C7.42277 10.2124 7.38162 9.79457 7.46181 9.39145C7.54199 8.98834 7.73991 8.61805 8.03054 8.32742C8.32117 8.03679 8.69146 7.83887 9.09458 7.75868C9.49769 7.6785 9.91554 7.71965 10.2953 7.87694C10.675 8.03423 10.9995 8.30058 11.2279 8.64233C11.4562 8.98408 11.5781 9.38586 11.5781 9.79688C11.5781 10.348 11.3592 10.8766 10.9695 11.2663C10.5797 11.6561 10.0512 11.875 9.5 11.875Z"
        fill="" />
</svg>