<svg width="25" height="24" viewBox="0 0 25 24" fill="" stroke="" xmlns="http://www.w3.org/2000/svg">
    <path
        d="M21.5 21.0002L17.157 16.6572M17.157 16.6572C17.8998 15.9143 18.4891 15.0324 18.8912 14.0618C19.2932 13.0911 19.5002 12.0508 19.5002 11.0002C19.5002 9.9496 19.2932 8.90929 18.8912 7.93866C18.4891 6.96803 17.8998 6.08609 17.157 5.34321C16.4141 4.60032 15.5321 4.01103 14.5615 3.60898C13.5909 3.20693 12.5506 3 11.5 3C10.4494 3 9.40905 3.20693 8.43842 3.60898C7.46779 4.01103 6.58585 4.60032 5.84296 5.34321C4.34263 6.84354 3.49976 8.87842 3.49976 11.0002C3.49976 13.122 4.34263 15.1569 5.84296 16.6572C7.34329 18.1575 9.37818 19.0004 11.5 19.0004C13.6217 19.0004 15.6566 18.1575 17.157 16.6572Z"
        stroke="" stroke-width="2" stroke-linecap="round" stroke-linejoin="round" fill="" />
</svg>