<svg width="64" height="64" viewBox="0 0 64 64" fill="none" xmlns="http://www.w3.org/2000/svg">
<g id="fluent:mail-unread-16-regular">
<path id="Vector" d="M56 20.9278C57.1417 20.2682 58.1026 19.3366 58.7973 18.2159C59.492 17.0952 59.8989 15.8202 59.9818 14.5043C60.0648 13.1884 59.8212 11.8723 59.2727 10.6733C58.7243 9.47425 57.888 8.42935 56.8382 7.63155C55.7884 6.83376 54.5577 6.30781 53.2556 6.10049C51.9534 5.89317 50.6202 6.01091 49.3746 6.44323C48.129 6.87556 47.0095 7.60906 46.1158 8.57849C45.2221 9.54792 44.5818 10.7232 44.252 11.9998C43.9142 13.3118 43.9142 14.6879 44.252 15.9998C44.5602 17.1942 45.1405 18.3011 45.9474 19.2341C46.7544 20.167 47.7661 20.9008 48.9036 21.3779C50.0411 21.8551 51.2735 22.0627 52.5046 21.9846C53.7356 21.9066 54.9319 21.5449 56 20.9278ZM16 11.9998H40.164C39.9416 13.3239 39.9416 14.6758 40.164 15.9998H16C14.9391 15.9998 13.9217 16.4213 13.1716 17.1714C12.4214 17.9216 12 18.939 12 19.9998V22.9598L32 33.7278L47.776 25.2358C50.4219 26.2328 53.3352 26.2612 56 25.3158V43.9998C56 46.1216 55.1571 48.1564 53.6569 49.6567C52.1566 51.157 50.1217 51.9998 48 51.9998H16C13.8783 51.9998 11.8434 51.157 10.3431 49.6567C8.84285 48.1564 8 46.1216 8 43.9998V19.9998C8 17.8781 8.84285 15.8433 10.3431 14.343C11.8434 12.8427 13.8783 11.9998 16 11.9998ZM12 27.5038V43.9998C12 45.0607 12.4214 46.0781 13.1716 46.8283C13.9217 47.5784 14.9391 47.9998 16 47.9998H48C49.0609 47.9998 50.0783 47.5784 50.8284 46.8283C51.5786 46.0781 52 45.0607 52 43.9998V27.5038L32.948 37.7598C32.6566 37.9167 32.3309 37.9988 32 37.9988C31.6691 37.9988 31.3434 37.9167 31.052 37.7598L12 27.5038Z" fill="white"/>
</g>
</svg>
